<svg xmlns="http://www.w3.org/2000/svg" width="475" height="450"><defs><clipPath id="clip-laptop_1"><path d="M0 0h475v450H0z"/></clipPath></defs><g id="laptop_1" data-name="laptop – 1" clip-path="url('#clip-laptop_1')"><g id="banner-image" transform="translate(38 6)"><ellipse id="Ellipse_1" data-name="Ellipse 1" cx="107.061" cy="32.105" rx="107.061" ry="32.105" transform="translate(97.226 373.29)" fill="#34dce7" opacity=".2"/><ellipse id="Ellipse_2" data-name="Ellipse 2" cx="78.327" cy="23.488" rx="78.327" ry="23.488" transform="translate(126.127 373.493)" fill="#34dce7" opacity=".1"/><ellipse id="Ellipse_3" data-name="Ellipse 3" cx="58.651" cy="17.588" rx="58.651" ry="17.588" transform="translate(145.883 377.707)" fill="#34dce7" opacity=".1"/><path id="Rectangle_2" data-name="Rectangle 2" transform="translate(59.503 258.305)" fill="#224dc2" d="M0 0h280.878v6.995H0z"/><rect id="Rectangle_3" data-name="Rectangle 3" width="214.952" height="146.538" rx="5.05" transform="translate(94.378 104.987)" fill="#224dc2"/><path id="Path_1" data-name="Path 1" d="M368.211 140.4H165.306a6.023 6.023 0 0 0-6.023 6.023v125.511h214.951V146.418a6.023 6.023 0 0 0-6.023-6.018Z" transform="translate(-64.905 -34.804)" fill="#1f4489"/><path id="Path_2" data-name="Path 2" d="M368.211 140.4H165.306a6.023 6.023 0 0 0-6.023 6.023v.434a6.023 6.023 0 0 1 6.023-6.023h202.905a6.023 6.023 0 0 1 6.023 6.023v-.434a6.023 6.023 0 0 0-6.023-6.023Z" transform="translate(-64.905 -31.267)" fill="#479ee8"/><path id="Path_4598" data-name="Path 4598" d="M0 0h198.244v117.337H0Z" transform="translate(102.757 114.36)" fill="#2a5fd1"/><g id="Group_1" data-name="Group 1" transform="translate(109.677 120.299)" fill="#4795fa"><rect id="Rectangle_5" data-name="Rectangle 5" width="114.9" height="2.773" rx="1.162" transform="translate(19.461 9.262)"/><rect id="Rectangle_6" data-name="Rectangle 6" width="74.966" height="3.56" rx="1.492"/><rect id="Rectangle_7" data-name="Rectangle 7" width="9.972" height="2.773" rx="1.162" transform="translate(0 9.262)"/><rect id="Rectangle_8" data-name="Rectangle 8" width="59.458" height="1.723" rx=".723" transform="translate(1.163 17.913)"/><rect id="Rectangle_9" data-name="Rectangle 9" width="59.458" height="1.723" rx=".723" transform="translate(1.163 24.933)"/><rect id="Rectangle_10" data-name="Rectangle 10" width="59.458" height="1.723" rx=".723" transform="translate(1.163 31.954)"/><rect id="Rectangle_11" data-name="Rectangle 11" width="59.458" height="1.723" rx=".723" transform="translate(1.163 38.974)"/><rect id="Rectangle_12" data-name="Rectangle 12" width="10.532" height="1.723" rx=".723" transform="translate(1.163 45.994)"/><rect id="Rectangle_13" data-name="Rectangle 13" width="10.532" height="1.723" rx=".723" transform="translate(16.538 45.994)"/><rect id="Rectangle_14" data-name="Rectangle 14" width="10.532" height="1.723" rx=".723" transform="translate(31.914 45.994)"/><rect id="Rectangle_15" data-name="Rectangle 15" width="10.532" height="1.723" rx=".723" transform="translate(47.29 45.994)"/><rect id="Rectangle_16" data-name="Rectangle 16" width="10.532" height="1.723" rx=".723" transform="translate(62.665 45.994)"/><rect id="Rectangle_17" data-name="Rectangle 17" width="10.532" height="1.723" rx=".723" transform="translate(78.041 45.994)"/><rect id="Rectangle_18" data-name="Rectangle 18" width="59.458" height="1.723" rx=".723" transform="translate(1.163 53.015)"/><rect id="Rectangle_19" data-name="Rectangle 19" width="73.216" height="2.403" rx="1.007" transform="translate(106.474 28.992)"/><rect id="Rectangle_20" data-name="Rectangle 20" width="73.216" height="2.403" rx="1.007" transform="translate(106.474 39.496)"/><rect id="Rectangle_21" data-name="Rectangle 21" width="73.216" height="2.403" rx="1.007" transform="translate(106.474 49.333)"/><rect id="Rectangle_22" data-name="Rectangle 22" width="73.216" height="2.403" rx="1.007" transform="translate(106.474 59.17)"/><rect id="Rectangle_23" data-name="Rectangle 23" width="73.216" height="2.403" rx="1.007" transform="translate(106.474 69.006)"/><rect id="Rectangle_24" data-name="Rectangle 24" width="38.788" height="2.403" rx="1.007" transform="translate(106.474 78.843)"/><rect id="Rectangle_25" data-name="Rectangle 25" width="38.788" height="2.403" rx="1.007" transform="translate(130.264 85.539)"/><rect id="Rectangle_26" data-name="Rectangle 26" width="38.788" height="2.403" rx="1.007" transform="translate(130.264 92.473)"/><rect id="Rectangle_27" data-name="Rectangle 27" width="19.363" height="2.403" rx="1.007" transform="translate(9.78 92.473)"/><rect id="Rectangle_28" data-name="Rectangle 28" width="19.363" height="2.403" rx="1.007" transform="translate(9.78 86.74)"/><rect id="Rectangle_29" data-name="Rectangle 29" width="19.363" height="2.403" rx="1.007" transform="translate(9.78 81.006)"/><rect id="Rectangle_30" data-name="Rectangle 30" width="19.363" height="2.403" rx="1.007" transform="translate(9.78 75.273)"/></g><g id="Group_2" data-name="Group 2" transform="translate(102.757 114.36)" opacity=".17" fill="#479ee8"><path id="Path_3" data-name="Path 3" d="M342.843 213.933v-21.052l-63.973 63.973h21.052Z" transform="translate(-144.599 -139.517)"/><path id="Path_4" data-name="Path 4" d="m249.232 265.474 110.143-110.142v-7.195h-48.984L193.054 265.474Z" transform="translate(-161.131 -148.137)"/><path id="Path_5" data-name="Path 5" d="M166.288 199.166v47.418l98.447-98.447h-47.418Z" transform="translate(-166.288 -148.137)"/></g><g id="Group_35" data-name="Group 35" transform="translate(131.14 104.599)"><path id="Rectangle_33" data-name="Rectangle 33" transform="translate(60.452 64.478)" fill="#feb187" d="M0 0h22.027v16.581H0z"/><path id="Path_6" data-name="Path 6" d="M240.721 225.649a31.653 31.653 0 0 0 22.027 0v4.821l-6.056 1.107-4.958 1.008-11.013-3.639Z" transform="translate(-180.268 -148.173)" fill="#f88b65"/><rect id="Rectangle_34" data-name="Rectangle 34" width="73.224" height="30.808" rx="8.649" transform="translate(34.78 164.924)" fill="#333049"/><path id="Path_7" data-name="Path 7" d="M292.053 314.814c-37.784 11.144-72.59-.083-72.608-.089a15.041 15.041 0 0 0 14.685 12.021h43.257a15.04 15.04 0 0 0 14.666-11.932Z" transform="translate(-184.367 -131.013)" fill="#28243f"/><g id="Group_4" data-name="Group 4" transform="translate(16.573)"><g id="Group_3" data-name="Group 3" transform="translate(29.753)"><path id="Path_8" data-name="Path 8" d="m252.946 176.065 15.379-15.378a17.074 17.074 0 0 1-.543 15.378l6.344-6.344s2.856 8.556-2.935 13.24l5.238-5.237s3.3 9.726-8.855 17.186Z" transform="translate(-224.239 -160.687)" fill="#333049"/><path id="Path_9" data-name="Path 9" d="m265.53 190.331 4.844.636.037-.03c.038-.379 1.28-13.794-14.126-20.156l-3.339 3.339Z" transform="translate(-224.239 -158.743)" fill="#28243f"/><circle id="Ellipse_4" data-name="Ellipse 4" cx="6.836" cy="6.836" transform="translate(36.756 41.271)" fill="#feb187" r="6.836"/><circle id="Ellipse_5" data-name="Ellipse 5" cx="6.836" cy="6.836" transform="translate(0 41.271)" fill="#feb187" r="6.836"/><rect id="Rectangle_35" data-name="Rectangle 35" width="42.478" height="59.212" rx="17.808" transform="translate(3.901 15.093)" fill="#333049"/><path id="Path_13" data-name="Path 13" d="M246.2 220.844v5.541l1.55-1.55 1.691 1.691 1.594-1.595 1.644 1.644v-5.731Z" transform="translate(-225.538 -149.098)" fill="#333049"/><path id="Path_14" data-name="Path 14" d="m250.955 220.5.811 4.688 1.284-1.284 1.4 1.4 1.321-1.321 1.362 1.362v-4.749Z" transform="translate(-224.622 -149.165)" fill="#333049"/><path id="Path_15" data-name="Path 15" d="M241.7 220.595v4.591l1.284-1.284 1.4 1.4 1.321-1.321 1.362 1.362.5-4.846Z" transform="translate(-226.405 -149.165)" fill="#333049"/></g><path id="Path_17" data-name="Path 17" d="m208.848 264.885-2.383 14.808h13.989v-16.658l-9.9-2.07" transform="translate(-203.441 -141.369)" fill="#feb187"/><path id="Path_18" data-name="Path 18" d="M217.611 267.268h-9.555l.485-3.016Z" transform="translate(-203.134 -140.736)" fill="#dc9266"/><path id="Path_19" data-name="Path 19" d="M234.106 232.349c-10.017 4.9-18.93 6.4-30.177 36.25l17.03 5.663s11.213-27.905 13.147-41.913Z" transform="translate(-203.929 -146.882)" fill="#0c2898"/><path id="Path_20" data-name="Path 20" d="m292.348 264.885 2.383 14.808h-13.989v-16.658l9.9-2.07" transform="translate(-189.132 -141.369)" fill="#feb187"/><path id="Path_21" data-name="Path 21" d="M282.869 267.268h9.555l-.485-3.016Z" transform="translate(-188.722 -140.736)" fill="#dc9266"/><path id="Path_22" data-name="Path 22" d="M269.7 232.349c10.017 4.9 18.93 6.4 30.177 36.25l-17.03 5.663s-11.209-27.905-13.147-41.913Z" transform="translate(-191.258 -146.882)" fill="#0c2898"/><path id="Path_23" data-name="Path 23" d="M261.336 331.5h-10.993c-18.736 0-30.368-8.873-30.368-29.487l-3.7-40.27a34.166 34.166 0 0 1 34.065-34.067h10.993a34.167 34.167 0 0 1 34.067 34.063l-5.827 37.839c.002 23.788-9.5 31.922-28.237 31.922Z" transform="translate(-201.55 -147.783)" fill="#224dc2"/><path id="Path_24" data-name="Path 24" d="M283.468 234.762c-21.821 3.412-50.884.5-55.663-.024a34.18 34.18 0 0 0-10.4 16.292l3.389.353 13.791 1.944 17.664 2.773 16.3 1.032 18.728-2.063 6.023-5.749a34.243 34.243 0 0 0-9.832-14.558Z" transform="translate(-201.333 -146.422)" fill="#133aaf"/></g><g id="Group_5" data-name="Group 5" transform="translate(39.25 195.733)"><path id="Path_25" data-name="Path 25" d="M228.03 402.033c0 3.028 4.259 2.569 9.513 2.569s9.512.459 9.512-2.569-4.259-5.484-9.512-5.484-9.513 2.451-9.513 5.484Z" transform="translate(-221.963 -310.983)" fill="#224dc2"/><path id="Path_26" data-name="Path 26" d="m222.943 324.8 15.392 89.606a16.256 16.256 0 0 0 9.666 0v-68.028Z" transform="translate(-222.943 -324.804)" fill="#333049"/><path id="Path_27" data-name="Path 27" d="m247.51 344.755-.819-1.5-.905-.131-20.29-2.1 2.991 15.785c2.49.125 13.75-5.066 18.85 7.961l.174-.9Z" transform="translate(-222.451 -321.679)" fill="#28243f"/><path id="Path_28" data-name="Path 28" d="M274.859 402.033c0 3.028-4.258 2.569-9.511 2.569s-9.513.459-9.513-2.569 4.259-5.484 9.513-5.484 9.511 2.451 9.511 5.484Z" transform="translate(-216.607 -310.983)" fill="#224dc2"/><path id="Path_29" data-name="Path 29" d="m280.922 324.8-15.392 89.61a16.26 16.26 0 0 1-9.668 0v-68.032Z" transform="translate(-216.601 -324.804)" fill="#333049"/><path id="Path_30" data-name="Path 30" d="m255.862 344.755.821-1.5.905-.131 20.289-2.1-2.99 15.785c-2.49.125-13.75-5.066-18.85 7.961l-.175-.9Z" transform="translate(-216.601 -321.679)" fill="#28243f"/></g><g id="Group_34" data-name="Group 34" transform="translate(0 92.692)"><rect id="Rectangle_36" data-name="Rectangle 36" width="61.217" height="4.88" rx="1.409" transform="rotate(-90 125.478 56.527)" fill="#2273db"/><path id="Rectangle_37" data-name="Rectangle 37" d="M6.711 0h3.915a5.381 5.381 0 0 1 5.381 5.381v17.6A6.711 6.711 0 0 1 9.3 29.694H6.711A6.711 6.711 0 0 1 0 22.983V6.711A6.711 6.711 0 0 1 6.711 0Z" transform="translate(63.388 119.105)" fill="#22a4fd"/><path id="Path_31" data-name="Path 31" d="M259.184 346.366a19.723 19.723 0 0 0-15.971 0v-5.7a19.714 19.714 0 0 1 15.971 0Z" transform="translate(-179.788 -219.032)" fill="#224dc2" opacity=".65"/><g id="Group_11" data-name="Group 11" transform="translate(0 52.256)"><g id="Group_6" data-name="Group 6" transform="translate(0 2.732)"><path id="Path_32" data-name="Path 32" d="M224.784 333.694h-10.161a24.591 24.591 0 0 1-1.333-49.145 2.843 2.843 0 0 1 .444-.036h.89a2.743 2.743 0 0 1 0 5.485 19.105 19.105 0 0 0 0 38.211h10.161a2.743 2.743 0 0 1 0 5.485Z" transform="translate(-190.033 -284.513)" fill="#224dc2"/></g><g id="Group_10" data-name="Group 10" transform="translate(13.75)"><g id="Group_9" data-name="Group 9"><g id="Group_7" data-name="Group 7"><rect id="Rectangle_38" data-name="Rectangle 38" width="18.012" height="9.166" rx="3.843" fill="#4895fa"/></g><g id="Group_8" data-name="Group 8" transform="translate(0 .001)"><path id="Path_33" data-name="Path 33" d="M206.145 282.749h8.846a4.586 4.586 0 0 1 4.557 4.32c0-.088.026-.173.026-.263a4.6 4.6 0 0 0-4.583-4.582h-8.846a4.6 4.6 0 0 0-4.583 4.582c0 .091.021.175.027.263a4.584 4.584 0 0 1 4.556-4.32Z" transform="translate(-201.562 -282.223)" fill="#224dc2"/></g></g></g></g><g id="Group_17" data-name="Group 17" transform="translate(104.111 52.256)"><g id="Group_12" data-name="Group 12" transform="translate(0 2.732)"><path id="Path_34" data-name="Path 34" d="M280.069 333.694h10.161a24.591 24.591 0 0 0 1.333-49.145 2.854 2.854 0 0 0-.444-.036h-.89a2.743 2.743 0 1 0 0 5.485 19.105 19.105 0 0 1 0 38.211h-10.16a2.743 2.743 0 0 0 0 5.485Z" transform="translate(-277.327 -284.513)" fill="#224dc2"/></g><g id="Group_16" data-name="Group 16" transform="translate(5.731)"><g id="Group_15" data-name="Group 15"><g id="Group_13" data-name="Group 13"><rect id="Rectangle_39" data-name="Rectangle 39" width="18.012" height="9.166" rx="3.843" fill="#4895fa"/></g><g id="Group_14" data-name="Group 14"><path id="Path_35" data-name="Path 35" d="M295.561 282.749h-8.846a4.586 4.586 0 0 0-4.557 4.32c0-.088-.026-.173-.026-.263a4.6 4.6 0 0 1 4.583-4.582h8.846a4.6 4.6 0 0 1 4.583 4.582c0 .091-.022.175-.027.263a4.584 4.584 0 0 0-4.556-4.32Z" transform="translate(-282.132 -282.223)" fill="#224dc2"/></g></g></g></g><path id="Path_890" data-name="Path 890" d="M11.022 0h79.361a11.022 11.022 0 1 1 0 22.045H11.022a11.022 11.022 0 0 1 0-22.045Z" transform="translate(20.689 96.429)" fill="#4895fa"/><path id="Path_36" data-name="Path 36" d="M218.4 320.293h79.361a11.048 11.048 0 0 1 11 10.506c.008-.172.026-.342.026-.516a11.055 11.055 0 0 0-11.022-11.022H218.4a11.055 11.055 0 0 0-11.022 11.022c0 .174.018.345.026.516a11.047 11.047 0 0 1 10.996-10.506Z" transform="translate(-186.691 -222.831)" fill="#224dc2"/><path id="Path_37" data-name="Path 37" d="M269.991 324.968h-28.63a20.849 20.849 0 0 1-20.788-20.788l-5.2-44.985a20.849 20.849 0 0 1 20.788-20.788h40.759a20.849 20.849 0 0 1 20.788 20.788l-6.929 44.985a20.848 20.848 0 0 1-20.788 20.788Z" transform="translate(-185.151 -238.407)" fill="#4895fa"/><path id="Path_38" data-name="Path 38" d="M236.165 239.281h40.755a20.837 20.837 0 0 1 20.757 20.177l.031-.264a20.849 20.849 0 0 0-20.788-20.788h-40.755a20.85 20.85 0 0 0-20.789 20.788l.029.32a20.838 20.838 0 0 1 20.76-20.233Z" transform="translate(-185.151 -238.407)" fill="#52fffd"/><rect id="Rectangle_41" data-name="Rectangle 41" width="79.771" height="9.751" rx="4.088" transform="translate(31.506 112.877)" fill="#224dc2"/><rect id="Rectangle_42" data-name="Rectangle 42" width="42.455" height="9.751" rx="2.814" transform="translate(50.164 122.459)" fill="#224dc2"/><path id="Path_39" data-name="Path 39" d="M221.326 333.362h70.02a4.882 4.882 0 0 1 4.86 4.72c0-.054.016-.1.016-.156a4.891 4.891 0 0 0-4.876-4.876h-70.02a4.89 4.89 0 0 0-4.875 4.876c0 .054.014.1.016.156a4.882 4.882 0 0 1 4.859-4.72Z" transform="translate(-184.944 -220.174)" fill="#2293f0"/><rect id="Rectangle_43" data-name="Rectangle 43" width="66.414" height="4.88" rx="2.046" transform="translate(38.184 120.39)" fill="#2273db"/><path id="Path_40" data-name="Path 40" d="M224.49 339.509h61.533a2.443 2.443 0 0 1 2.432 2.361c0-.026.008-.051.008-.079a2.448 2.448 0 0 0-2.44-2.44H224.49a2.447 2.447 0 0 0-2.44 2.44c0 .027.007.052.007.079a2.444 2.444 0 0 1 2.433-2.361Z" transform="translate(-183.865 -218.961)" fill="#22b2ff"/><path id="Path_41" data-name="Path 41" d="M246.171 396.132v-7.579a4.452 4.452 0 0 1 4.439-4.439 4.452 4.452 0 0 1 4.439 4.439v7.579" transform="translate(-179.218 -210.337)" fill="#22a4fd"/><g id="Group_18" data-name="Group 18" transform="translate(36.461 183.217)"><path id="Path_42" data-name="Path 42" d="M222.339 402.832a1.732 1.732 0 0 1-.714-3.311 84.578 84.578 0 0 1 69.6 0 1.732 1.732 0 0 1-1.425 3.157 81.141 81.141 0 0 0-66.75 0 1.718 1.718 0 0 1-.711.154Z" transform="translate(-220.605 -392.03)" fill="#2273db"/></g><rect id="Rectangle_44" data-name="Rectangle 44" width="15.313" height="5.736" rx="1.655" transform="translate(64.082 182.005)" fill="#224dc2"/><rect id="Rectangle_45" data-name="Rectangle 45" width="2.439" height="15.376" rx="1.022" transform="translate(70.516 184.873)" fill="#2273db"/><path id="Path_891" data-name="Path 891" d="M3.306 0a3.306 3.306 0 0 1 3.305 3.306v6.25A3.306 3.306 0 0 1 0 9.555V3.306A3.306 3.306 0 0 1 3.306 0Z" transform="translate(68.433 195.242)" fill="#224dc2"/><g id="Group_19" data-name="Group 19" transform="translate(103.122 189.729)"><circle id="Ellipse_6" data-name="Ellipse 6" cx="6.24" cy="6.24" fill="#224dc2" r="6.24"/><path id="Path_43" data-name="Path 43" d="M282.738 397.649a6.235 6.235 0 0 1 6.232 6.161c0-.027.008-.052.008-.08a6.24 6.24 0 1 0-12.48 0c0 .027.008.053.008.08a6.236 6.236 0 0 1 6.232-6.161Z" transform="translate(-276.498 -397.49)" fill="#224dc2"/><circle id="Ellipse_7" data-name="Ellipse 7" cx="3.721" cy="3.721" transform="translate(2.519 2.519)" fill="#67a5ff" r="3.721"/><circle id="Ellipse_8" data-name="Ellipse 8" cx="1.494" cy="1.494" transform="translate(4.746 4.746)" fill="#2273db" r="1.494"/><path id="Path_44" data-name="Path 44" d="M281.971 401.549a1.49 1.49 0 0 1 1.486 1.451c0-.013.008-.025.008-.039a1.494 1.494 0 0 0-2.988 0c0 .014.007.026.007.039a1.49 1.49 0 0 1 1.487-1.451Z" transform="translate(-275.731 -396.723)" fill="#5fffff"/></g><g id="Group_20" data-name="Group 20" transform="translate(30.222 189.729)"><circle id="Ellipse_9" data-name="Ellipse 9" cx="6.24" cy="6.24" fill="#224dc2" r="6.24"/><path id="Path_45" data-name="Path 45" d="M221.613 397.649a6.235 6.235 0 0 1 6.232 6.161c0-.027.008-.052.008-.08a6.24 6.24 0 0 0-12.48 0c0 .027.008.053.008.08a6.236 6.236 0 0 1 6.232-6.161Z" transform="translate(-215.373 -397.49)" fill="#2273db"/><circle id="Ellipse_10" data-name="Ellipse 10" cx="3.721" cy="3.721" transform="translate(2.519 2.519)" fill="#67a5ff" r="3.721"/><circle id="Ellipse_11" data-name="Ellipse 11" cx="1.494" cy="1.494" transform="translate(4.746 4.746)" fill="#2273db" r="1.494"/><path id="Path_46" data-name="Path 46" d="M220.846 401.549a1.49 1.49 0 0 1 1.486 1.451c0-.013.008-.025.008-.039a1.494 1.494 0 0 0-2.987 0c0 .014.007.026.007.039a1.49 1.49 0 0 1 1.486-1.451Z" transform="translate(-214.606 -396.723)" fill="#5fffff"/></g><rect id="Rectangle_47" data-name="Rectangle 47" width="42.455" height="20.359" rx="8.535" transform="translate(50.164 28.586)" fill="#224dc2"/><path id="Path_47" data-name="Path 47" d="M264.371 262.376h-22.1a10.21 10.21 0 0 0-10.179 10.179c0 .057.007.112.008.168a10.205 10.205 0 0 1 10.171-10.011h22.1a10.206 10.206 0 0 1 10.171 10.011c0-.056.008-.111.008-.168a10.209 10.209 0 0 0-10.179-10.179Z" transform="translate(-181.93 -233.79)" fill="#226ee5"/><rect id="Rectangle_48" data-name="Rectangle 48" width="9.664" height="81.469" rx="2.789" transform="translate(66.56 36.283)" fill="#111f9a"/><g id="Group_21" data-name="Group 21" transform="translate(67.596 41.362)"><rect id="Rectangle_49" data-name="Rectangle 49" width="7.591" height="2.098" rx=".575" fill="#1159c9"/><rect id="Rectangle_50" data-name="Rectangle 50" width="7.591" height="1.991" rx=".575" fill="#111b54"/></g><g id="Group_22" data-name="Group 22" transform="translate(67.596 47.136)"><rect id="Rectangle_51" data-name="Rectangle 51" width="7.591" height="2.098" rx=".575" fill="#1159c9"/><rect id="Rectangle_52" data-name="Rectangle 52" width="7.591" height="1.991" rx=".575" fill="#111b54"/></g><g id="Group_23" data-name="Group 23" transform="translate(67.596 52.622)"><rect id="Rectangle_53" data-name="Rectangle 53" width="7.591" height="2.098" rx=".575" fill="#1159c9"/><rect id="Rectangle_54" data-name="Rectangle 54" width="7.591" height="1.991" rx=".575" fill="#111b54"/></g><g id="Group_24" data-name="Group 24" transform="translate(67.596 58.107)"><rect id="Rectangle_55" data-name="Rectangle 55" width="7.591" height="2.098" rx=".575" fill="#1159c9"/><rect id="Rectangle_56" data-name="Rectangle 56" width="7.591" height="1.991" rx=".575" fill="#111b54"/></g><g id="Group_25" data-name="Group 25" transform="translate(67.596 63.593)"><rect id="Rectangle_57" data-name="Rectangle 57" width="7.591" height="2.098" rx=".575" fill="#1159c9"/><rect id="Rectangle_58" data-name="Rectangle 58" width="7.591" height="1.991" rx=".575" fill="#111b54"/></g><g id="Group_26" data-name="Group 26" transform="translate(67.596 69.078)"><rect id="Rectangle_59" data-name="Rectangle 59" width="7.591" height="2.098" rx=".575" fill="#1159c9"/><rect id="Rectangle_60" data-name="Rectangle 60" width="7.591" height="1.991" rx=".575" fill="#111b54"/></g><g id="Group_27" data-name="Group 27" transform="translate(67.596 74.564)"><rect id="Rectangle_61" data-name="Rectangle 61" width="7.591" height="2.098" rx=".575" fill="#1159c9"/><rect id="Rectangle_62" data-name="Rectangle 62" width="7.591" height="1.991" rx=".575" fill="#111b54"/></g><g id="Group_28" data-name="Group 28" transform="translate(67.596 80.049)"><rect id="Rectangle_63" data-name="Rectangle 63" width="7.591" height="2.098" rx=".575" fill="#1159c9"/><rect id="Rectangle_64" data-name="Rectangle 64" width="7.591" height="1.991" rx=".575" fill="#111b54"/></g><g id="Group_29" data-name="Group 29" transform="translate(67.596 85.535)"><rect id="Rectangle_65" data-name="Rectangle 65" width="7.591" height="2.098" rx=".575" fill="#1159c9"/><rect id="Rectangle_66" data-name="Rectangle 66" width="7.591" height="1.991" rx=".575" fill="#111b54"/></g><g id="Group_30" data-name="Group 30" transform="translate(67.596 91.02)"><rect id="Rectangle_67" data-name="Rectangle 67" width="7.591" height="2.098" rx=".575" fill="#1159c9"/><rect id="Rectangle_68" data-name="Rectangle 68" width="7.591" height="1.991" rx=".575" fill="#111b54"/></g><g id="Group_31" data-name="Group 31" transform="translate(67.596 96.506)"><rect id="Rectangle_69" data-name="Rectangle 69" width="7.591" height="2.098" rx=".575" fill="#1159c9"/><rect id="Rectangle_70" data-name="Rectangle 70" width="7.591" height="1.991" rx=".575" fill="#111b54"/></g><g id="Group_32" data-name="Group 32" transform="translate(67.596 101.991)"><rect id="Rectangle_71" data-name="Rectangle 71" width="7.591" height="2.098" rx=".575" fill="#1159c9"/><rect id="Rectangle_72" data-name="Rectangle 72" width="7.591" height="1.991" rx=".575" fill="#111b54"/></g><g id="Group_33" data-name="Group 33" transform="translate(67.596 107.477)"><rect id="Rectangle_73" data-name="Rectangle 73" width="7.591" height="2.098" rx=".575" fill="#1159c9"/><rect id="Rectangle_74" data-name="Rectangle 74" width="7.591" height="1.991" rx=".575" fill="#111b54"/></g></g></g><g id="Group_37" data-name="Group 37" transform="translate(275.425 236.521)"><g id="Group_36" data-name="Group 36" transform="translate(13.615 2.44)"><path id="Path_48" data-name="Path 48" d="M335.1 271.4a5.952 5.952 0 1 1 5.951-5.953 5.958 5.958 0 0 1-5.951 5.953Zm0-10.14a4.188 4.188 0 1 0 4.187 4.187 4.193 4.193 0 0 0-4.187-4.19Z" transform="translate(-329.151 -259.493)" fill="#34c6e7"/></g><path id="Path_49" data-name="Path 49" d="M337.149 257.447v11.959a9.68 9.68 0 0 1-9.652 9.651 9.68 9.68 0 0 1-9.652-9.651v-11.959Z" transform="translate(-317.714 -257.447)" fill="#34dce7"/><rect id="Rectangle_75" data-name="Rectangle 75" width="19.566" height="2.629" rx=".901" transform="translate(0 20.295)" fill="#34c6e7"/></g><g id="Group_40" data-name="Group 40" transform="translate(29.609 26.79)"><g id="Group_38" data-name="Group 38"><path id="Path_50" data-name="Path 50" d="M218.119 107.618H90.34l-.117-.576a14.357 14.357 0 0 1 22.462-14.53 36.532 36.532 0 0 1 70-5.665 21.5 21.5 0 0 1 35.983 15.888 21.582 21.582 0 0 1-.434 4.307ZM91.53 106.18h125.405a20.074 20.074 0 0 0-19.767-23.507 19.911 19.911 0 0 0-14.27 5.969l-.817.825-.377-1.1a35.092 35.092 0 0 0-67.816 5.566l-.209 1.259-.97-.831a12.915 12.915 0 0 0-21.336 9.8 13.113 13.113 0 0 0 .157 2.019Z" transform="translate(-89.935 -63.191)" fill="#2d61f0"/></g><g id="Group_39" data-name="Group 39" transform="translate(45.731 11.142)"><path id="Path_51" data-name="Path 51" d="M148.226 99.042h-11.587a2.764 2.764 0 0 1-2.761-2.761v-7.089h-3.058a2.535 2.535 0 0 1-1.793-4.328l11.613-11.612a2.6 2.6 0 0 1 3.585 0l11.613 11.612a2.536 2.536 0 0 1-1.794 4.328h-3.058v7.089a2.764 2.764 0 0 1-2.76 2.761Zm-5.793-25.094a1.086 1.086 0 0 0-.775.322l-11.613 11.611a1.1 1.1 0 0 0 .775 1.872h4.5v8.527a1.324 1.324 0 0 0 1.323 1.321h11.587a1.324 1.324 0 0 0 1.323-1.321v-8.527h4.5a1.1 1.1 0 0 0 .776-1.872l-11.62-11.612a1.09 1.09 0 0 0-.776-.322Z" transform="translate(-128.279 -72.533)" fill="#2d61f0"/></g></g><g id="Group_43" data-name="Group 43" transform="translate(220.701)"><g id="Group_41" data-name="Group 41"><path id="Path_52" data-name="Path 52" d="M321.449 58.938h-52.377l-.049-.236a6.025 6.025 0 0 1-.118-1.178 5.885 5.885 0 0 1 9.327-4.778 14.975 14.975 0 0 1 28.694-2.322 8.812 8.812 0 0 1 14.749 6.513 8.878 8.878 0 0 1-.175 1.763Zm-51.89-.589h51.4a8.382 8.382 0 0 0 .12-1.412 8.222 8.222 0 0 0-14.073-5.777l-.335.339-.154-.451a14.384 14.384 0 0 0-27.8 2.282l-.086.516-.4-.341a5.3 5.3 0 0 0-8.681 4.845Z" transform="translate(-268.905 -40.728)" fill="#2d61f0"/></g><g id="Group_42" data-name="Group 42" transform="translate(18.746 4.567)"><path id="Path_53" data-name="Path 53" d="M292.8 55.423h-4.75a1.133 1.133 0 0 1-1.132-1.132v-2.905h-1.254a1.04 1.04 0 0 1-.735-1.775l4.76-4.76a1.064 1.064 0 0 1 1.469 0l4.761 4.76a1.039 1.039 0 0 1-.735 1.775h-1.254v2.905a1.134 1.134 0 0 1-1.13 1.132Zm-2.373-10.287a.448.448 0 0 0-.318.132l-4.76 4.76a.449.449 0 0 0 .317.767h1.844v3.5a.542.542 0 0 0 .542.541h4.748a.542.542 0 0 0 .543-.541V50.8h1.844a.449.449 0 0 0 .317-.767l-4.76-4.76a.448.448 0 0 0-.319-.136Z" transform="translate(-284.623 -44.557)" fill="#2d61f0"/></g></g><path id="Rectangle_76" data-name="Rectangle 76" transform="translate(0 58.888)" fill="#34dce7" opacity=".3" d="M0 0h177.992v.865H0z"/><g id="Group_47" data-name="Group 47" transform="translate(0 58.888)"><path id="Rectangle_77" data-name="Rectangle 77" d="M0 0h177.992v101.077a7.517 7.517 0 0 1-7.517 7.517H7.517A7.517 7.517 0 0 1 0 101.077V0Z" fill="#34dce7" opacity=".3"/><path id="Rectangle_78" data-name="Rectangle 78" transform="translate(15.679 22.447)" fill="#34dce7" opacity=".3" d="M0 0h94.78v34.022H0z"/><path id="Rectangle_79" data-name="Rectangle 79" transform="translate(15.909 63.187)" fill="#34dce7" opacity=".3" d="M0 0h33.328v10.555H0z"/><path id="Rectangle_80" data-name="Rectangle 80" transform="translate(54.239 63.187)" fill="#34dce7" opacity=".3" d="M0 0h56.451v10.555H0z"/><path id="Rectangle_81" data-name="Rectangle 81" transform="translate(116.976 22.823)" fill="#34dce7" opacity=".3" d="M0 0h51.595v14.729H0z"/><path id="Rectangle_82" data-name="Rectangle 82" transform="translate(15.909 80.084)" fill="#34dce7" opacity=".3" d="M0 0h152.662v14.729H0z"/><path id="Rectangle_83" data-name="Rectangle 83" transform="translate(116.976 41.401)" fill="#34dce7" opacity=".3" d="M0 0h51.595v33.516H0z"/><path id="Rectangle_84" data-name="Rectangle 84" fill="#34dce7" opacity=".3" d="M0 0h177.992v17.756H0z"/><path id="Rectangle_85" data-name="Rectangle 85" transform="translate(0 17.414)" fill="#34dce7" opacity=".66" d="M0 0h177.992v.342H0z"/><circle id="Ellipse_15" data-name="Ellipse 15" cx="2.92" cy="2.92" transform="translate(4.231 5.511)" fill="#2a5fd1" r="2.92"/><circle id="Ellipse_16" data-name="Ellipse 16" cx="2.92" cy="2.92" transform="translate(12.99 5.511)" fill="#2a5fd1" r="2.92"/><circle id="Ellipse_17" data-name="Ellipse 17" cx="2.92" cy="2.92" transform="translate(21.681 5.511)" fill="#2a5fd1" r="2.92"/><rect id="Rectangle_86" data-name="Rectangle 86" width="5.839" height="81.28" rx="2.448" transform="translate(4.231 20.294)" fill="#34dce7" opacity=".3"/><rect id="Rectangle_87" data-name="Rectangle 87" width="2.333" height="21.328" rx=".978" transform="translate(5.778 22.823)" fill="#34dce7"/><path id="Line_14" data-name="Line 14" fill="none" stroke="#34fbe7" stroke-linecap="round" stroke-linejoin="round" stroke-width="1" d="M45.638 65.62H34.457"/><path id="Line_15" data-name="Line 15" fill="none" stroke="#34fbe7" stroke-linecap="round" stroke-linejoin="round" stroke-width="1" d="M44.595 70.54H18.804"/><path id="Line_16" data-name="Line 16" fill="none" stroke="#34fbe7" stroke-linecap="round" stroke-linejoin="round" stroke-width="1" d="M57.117 65.62h4.621"/><path id="Line_17" data-name="Line 17" fill="none" stroke="#34fbe7" stroke-linecap="round" stroke-linejoin="round" stroke-width="1" d="M65.541 65.62h4.621"/><path id="Line_18" data-name="Line 18" fill="none" stroke="#34fbe7" stroke-linecap="round" stroke-linejoin="round" stroke-width="1" d="M73.964 65.62h4.621"/><path id="Line_19" data-name="Line 19" fill="none" stroke="#34fbe7" stroke-linecap="round" stroke-linejoin="round" stroke-width="1" d="M82.387 65.62h4.621"/><path id="Line_20" data-name="Line 20" fill="none" stroke="#34fbe7" stroke-linecap="round" stroke-linejoin="round" stroke-width="1" d="M90.81 65.62h4.621"/><path id="Line_21" data-name="Line 21" fill="none" stroke="#34fbe7" stroke-linecap="round" stroke-linejoin="round" stroke-width="1" d="M99.233 65.62h4.621"/><path id="Line_22" data-name="Line 22" fill="none" stroke="#34fbe7" stroke-linecap="round" stroke-linejoin="round" stroke-width="1" d="M57.117 69.212h2.982"/><path id="Line_23" data-name="Line 23" fill="none" stroke="#34fbe7" stroke-linecap="round" stroke-linejoin="round" stroke-width="1" d="M64.05 69.212h2.982"/><path id="Line_24" data-name="Line 24" fill="none" stroke="#34fbe7" stroke-linecap="round" stroke-linejoin="round" stroke-width="1" d="M70.982 69.212h2.982"/><path id="Line_25" data-name="Line 25" fill="none" stroke="#34fbe7" stroke-linecap="round" stroke-linejoin="round" stroke-width="1" d="M77.914 69.212h2.982"/><path id="Line_26" data-name="Line 26" fill="none" stroke="#34fbe7" stroke-linecap="round" stroke-linejoin="round" stroke-width="1" d="M84.846 69.212h2.982"/><path id="Line_27" data-name="Line 27" fill="none" stroke="#34fbe7" stroke-linecap="round" stroke-linejoin="round" stroke-width="1" d="M91.779 69.212h2.982"/><path id="Line_28" data-name="Line 28" fill="none" stroke="#34fbe7" stroke-linecap="round" stroke-linejoin="round" stroke-width="1" d="M98.711 69.212h2.982"/><path id="Path_59" data-name="Path 59" d="m22.45 83.845-3.282 3.282 3.154 3.154" fill="none" stroke="#34fbe7" stroke-linecap="round" stroke-linejoin="round" stroke-width="1"/><path id="Path_60" data-name="Path 60" d="m25.732 83.845-3.282 3.282 3.154 3.154" fill="none" stroke="#34fbe7" stroke-linecap="round" stroke-linejoin="round" stroke-width="1"/><path id="Path_61" data-name="Path 61" d="m125.598 26.969-3.282 3.283 3.154 3.154" fill="none" stroke="#34fbe7" stroke-linecap="round" stroke-linejoin="round" stroke-width="1"/><path id="Line_29" data-name="Line 29" fill="none" stroke="#34fbe7" stroke-linecap="round" stroke-linejoin="round" stroke-width="1" d="M120.67 45.224h25.977"/><path id="Line_30" data-name="Line 30" fill="none" stroke="#34fbe7" stroke-linecap="round" stroke-linejoin="round" stroke-width="1" d="M120.67 48.404h10.207"/><path id="Line_31" data-name="Line 31" fill="none" stroke="#34fbe7" stroke-linecap="round" stroke-linejoin="round" stroke-width="1" d="M120.67 53.396h10.207"/><path id="Line_32" data-name="Line 32" fill="none" stroke="#34fbe7" stroke-linecap="round" stroke-linejoin="round" stroke-width="1" d="M120.67 58.388h10.207"/><path id="Line_33" data-name="Line 33" fill="none" stroke="#34fbe7" stroke-linecap="round" stroke-linejoin="round" stroke-width="1" d="M120.67 63.379h10.207"/><path id="Line_34" data-name="Line 34" fill="none" stroke="#34fbe7" stroke-linecap="round" stroke-linejoin="round" stroke-width="1" d="M161.175 51.458h-6.919"/><path id="Line_35" data-name="Line 35" fill="none" stroke="#34fbe7" stroke-linecap="round" stroke-linejoin="round" stroke-width="1" d="M161.175 54.297h-6.919"/><path id="Line_36" data-name="Line 36" fill="none" stroke="#34fbe7" stroke-linecap="round" stroke-linejoin="round" stroke-width="1" d="M161.175 57.137h-6.919"/><path id="Line_37" data-name="Line 37" fill="none" stroke="#34fbe7" stroke-linecap="round" stroke-linejoin="round" stroke-width="1" d="M161.175 59.976h-6.919"/><path id="Line_38" data-name="Line 38" fill="none" stroke="#34fbe7" stroke-linecap="round" stroke-linejoin="round" stroke-width="1" d="M161.175 62.816h-6.919"/><path id="Line_39" data-name="Line 39" fill="none" stroke="#34fbe7" stroke-linecap="round" stroke-linejoin="round" stroke-width="1" d="M161.175 65.656h-6.919"/><path id="Line_40" data-name="Line 40" fill="none" stroke="#34fbe7" stroke-linecap="round" stroke-linejoin="round" stroke-width="1" d="M161.175 68.495h-6.919"/><path id="Line_41" data-name="Line 41" fill="none" stroke="#34fbe7" stroke-linecap="round" stroke-linejoin="round" stroke-width="1" d="M161.175 71.335h-6.919"/><path id="Line_42" data-name="Line 42" fill="none" stroke="#34fbe7" stroke-linecap="round" stroke-linejoin="round" stroke-width="1" d="M33.862 83.845h69.992"/><path id="Line_43" data-name="Line 43" fill="none" stroke="#34fbe7" stroke-linecap="round" stroke-linejoin="round" stroke-width="1" d="M33.862 87.063h42.412"/><path id="Line_44" data-name="Line 44" fill="none" stroke="#34fbe7" stroke-linecap="round" stroke-linejoin="round" stroke-width="1" d="M33.862 91.594h42.412"/><g id="Group_2130" data-name="Group 2130" transform="translate(37.377 8.415)"><g id="css-3_1_" data-name="css-3 (1)" transform="translate(47.784 31.154)"><g id="Group_2124" data-name="Group 2124"><path id="Path_4573" data-name="Path 4573" d="m32 0 3.528 39.848 15.842 4.427 15.837-4.425L70.741 0Zm31.2 13.031-.445 5.006-1.345 15.009-10.04 2.773h-.006l-10.03-2.776-.7-7.848h4.915l.365 4.073 5.454 1.472.006-.006 5.46-1.472.744-6.782-17.178.048-.487-4.641 18.078-.21.365-4.967-18.928.053-.318-4.616h24.525Z" transform="translate(-32)" fill="#2753cc"/></g></g><path id="html-5" d="m27.3 1.46 2.863 36.627a1.355 1.355 0 0 0 .941 1.186l15.064 4.777a1.355 1.355 0 0 0 .819 0l15.065-4.776a1.355 1.355 0 0 0 .941-1.186L65.857 1.46A1.355 1.355 0 0 0 64.506 0H28.65a1.355 1.355 0 0 0-1.35 1.46Zm31.215 11.364H39.856l.563 5.193h17.69l-1.157 14.8-10.374 3.293L36.2 32.821l-.6-7.734h5.445v3.793l5.678 1.52 5.645-1.524.438-6.046H35.423L34.269 8.07h24.617Z" transform="translate(-27.295)" fill="#2753cc"/></g></g><g id="Group_48" data-name="Group 48" transform="translate(64.676 161.612)"><path id="Rectangle_88" data-name="Rectangle 88" d="M0 0h84.16v71.516a7.517 7.517 0 0 1-7.517 7.517H7.517A7.517 7.517 0 0 1 0 71.516V0Z" fill="#34dce7" opacity=".3"/><path id="Rectangle_89" data-name="Rectangle 89" transform="translate(11.578 16.61)" fill="#34dce7" opacity=".3" d="M0 0h68.979v24.761H0z"/><path id="Rectangle_90" data-name="Rectangle 90" transform="translate(11.578 45.986)" fill="#34dce7" opacity=".3" d="M0 0h24.255v7.682H0z"/><path id="Rectangle_91" data-name="Rectangle 91" transform="translate(39.474 45.986)" fill="#34dce7" opacity=".3" d="M0 0h41.084v7.682H0z"/><path id="Rectangle_92" data-name="Rectangle 92" fill="#34dce7" opacity=".3" d="M0 0h84.16v12.923H0z"/><path id="Rectangle_93" data-name="Rectangle 93" transform="translate(0 12.673)" fill="#34dce7" opacity=".66" d="M0 0h84.16v.249H0z"/><circle id="Ellipse_21" data-name="Ellipse 21" cx="2.125" cy="2.125" transform="translate(3.079 4.011)" fill="#2a5fd1" r="2.125"/><circle id="Ellipse_22" data-name="Ellipse 22" cx="2.125" cy="2.125" transform="translate(9.454 4.011)" fill="#2a5fd1" r="2.125"/><path id="Path_892" data-name="Path 892" d="M2.125 0A2.125 2.125 0 1 1 0 2.125 2.125 2.125 0 0 1 2.125 0Z" transform="translate(15.779 4.011)" fill="#2a5fd1"/><rect id="Rectangle_94" data-name="Rectangle 94" width="4.25" height="59.154" rx="1.583" transform="translate(3.079 14.77)" fill="#34dce7" opacity=".3"/><rect id="Rectangle_95" data-name="Rectangle 95" width="1.698" height="15.522" rx=".632" transform="translate(4.205 16.61)" fill="#34dce7"/><path id="Line_45" data-name="Line 45" fill="none" stroke="#34fbe7" stroke-linecap="round" stroke-linejoin="round" stroke-width="1" d="M14.258 20.149h29.046"/><path id="Line_46" data-name="Line 46" fill="none" stroke="#34fbe7" stroke-linecap="round" stroke-linejoin="round" stroke-width="1" d="M46.068 20.149h4.723"/><path id="Line_47" data-name="Line 47" fill="none" stroke="#34fbe7" stroke-linecap="round" stroke-linejoin="round" stroke-width="1" d="M55.999 20.149h20.615"/><path id="Line_48" data-name="Line 48" fill="none" stroke="#34fbe7" stroke-linecap="round" stroke-linejoin="round" stroke-width="1" d="M14.258 23.128H49.38"/><path id="Line_49" data-name="Line 49" fill="none" stroke="#34fbe7" stroke-linecap="round" stroke-linejoin="round" stroke-width="1" d="M52.853 22.586h14.278"/><path id="Line_50" data-name="Line 50" fill="none" stroke="#34fbe7" stroke-linecap="round" stroke-linejoin="round" stroke-width="1" d="M69.778 22.586h7.269"/><path id="Line_51" data-name="Line 51" fill="none" stroke="#34fbe7" stroke-linecap="round" stroke-linejoin="round" stroke-width="1" d="M15.779 26.817h41.522"/><path id="Line_52" data-name="Line 52" fill="none" stroke="#34fbe7" stroke-linecap="round" stroke-linejoin="round" stroke-width="1" d="M62.183 26.817h11.23"/><path id="Line_53" data-name="Line 53" fill="none" stroke="#34fbe7" stroke-linecap="round" stroke-linejoin="round" stroke-width="1" d="M77.047 30.131H44.932"/><path id="Line_54" data-name="Line 54" fill="none" stroke="#34fbe7" stroke-linecap="round" stroke-linejoin="round" stroke-width="1" d="M58.711 34.629H14.258"/><path id="Line_55" data-name="Line 55" fill="none" stroke="#34fbe7" stroke-linecap="round" stroke-linejoin="round" stroke-width="1" d="M44.932 37.45h32.875"/><path id="Line_56" data-name="Line 56" fill="none" stroke="#34fbe7" stroke-linecap="round" stroke-linejoin="round" stroke-width="1" d="M48.429 38.86H21.388"/><path id="Line_57" data-name="Line 57" fill="none" stroke="#34fbe7" stroke-linecap="round" stroke-linejoin="round" stroke-width="1" d="M14.258 30.131h11.795"/><path id="Line_58" data-name="Line 58" fill="none" stroke="#34fbe7" stroke-linecap="round" stroke-linejoin="round" stroke-width="1" d="M33.214 47.757h-8.137"/><path id="Line_59" data-name="Line 59" fill="none" stroke="#34fbe7" stroke-linecap="round" stroke-linejoin="round" stroke-width="1" d="M32.455 51.337h-18.77"/><path id="Line_60" data-name="Line 60" fill="none" stroke="#34fbe7" stroke-linecap="round" stroke-linejoin="round" stroke-width="1" d="M41.569 47.757h3.363"/><path id="Line_61" data-name="Line 61" fill="none" stroke="#34fbe7" stroke-linecap="round" stroke-linejoin="round" stroke-width="1" d="M47.699 47.757h3.363"/><path id="Line_62" data-name="Line 62" fill="none" stroke="#34fbe7" stroke-linecap="round" stroke-linejoin="round" stroke-width="1" d="M53.829 47.757h3.363"/><path id="Line_63" data-name="Line 63" fill="none" stroke="#34fbe7" stroke-linecap="round" stroke-linejoin="round" stroke-width="1" d="M59.959 47.757h3.363"/><path id="Line_64" data-name="Line 64" fill="none" stroke="#34fbe7" stroke-linecap="round" stroke-linejoin="round" stroke-width="1" d="M66.089 47.757h3.363"/><path id="Line_65" data-name="Line 65" fill="none" stroke="#34fbe7" stroke-linecap="round" stroke-linejoin="round" stroke-width="1" d="M72.219 47.757h3.363"/><path id="Line_66" data-name="Line 66" fill="none" stroke="#34fbe7" stroke-linecap="round" stroke-linejoin="round" stroke-width="1" d="M41.569 50.371h2.17"/><path id="Line_67" data-name="Line 67" fill="none" stroke="#34fbe7" stroke-linecap="round" stroke-linejoin="round" stroke-width="1" d="M46.614 50.371h2.17"/><path id="Line_68" data-name="Line 68" fill="none" stroke="#34fbe7" stroke-linecap="round" stroke-linejoin="round" stroke-width="1" d="M51.659 50.371h2.17"/><path id="Line_69" data-name="Line 69" fill="none" stroke="#34fbe7" stroke-linecap="round" stroke-linejoin="round" stroke-width="1" d="M56.704 50.371h2.17"/><path id="Line_70" data-name="Line 70" fill="none" stroke="#34fbe7" stroke-linecap="round" stroke-linejoin="round" stroke-width="1" d="M61.749 50.371h2.17"/><path id="Line_71" data-name="Line 71" fill="none" stroke="#34fbe7" stroke-linecap="round" stroke-linejoin="round" stroke-width="1" d="M66.795 50.371h2.17"/><path id="Line_72" data-name="Line 72" fill="none" stroke="#34fbe7" stroke-linecap="round" stroke-linejoin="round" stroke-width="1" d="M71.84 50.371h2.17"/><path id="Path_65" data-name="Path 65" d="m16.338 63.961-2.389 2.389 2.3 2.3" fill="none" stroke="#34fbe7" stroke-linecap="round" stroke-linejoin="round" stroke-width="1"/><path id="Path_66" data-name="Path 66" d="m18.727 63.961-2.389 2.389 2.3 2.3" fill="none" stroke="#34fbe7" stroke-linecap="round" stroke-linejoin="round" stroke-width="1"/></g><g id="Group_63" data-name="Group 63" transform="translate(272.901 202.573)"><path id="Rectangle_96" data-name="Rectangle 96" d="M0 0h67.106v26.566a7.517 7.517 0 0 1-7.517 7.517H7.517A7.517 7.517 0 0 1 0 26.566V0Z" fill="#34dce7" opacity=".3"/><path id="Rectangle_97" data-name="Rectangle 97" transform="translate(6.924 9.933)" fill="#34dce7" opacity=".3" d="M0 0h38.994v14.808H0z"/><path id="Rectangle_98" data-name="Rectangle 98" fill="#34dce7" opacity=".3" d="M0 0h67.106v7.728H0z"/><circle id="Ellipse_24" data-name="Ellipse 24" cx="1.603" cy="1.603" transform="translate(1.509 2.067)" fill="#34dce7" opacity=".3" r="1.603"/><path id="Path_67" data-name="Path 67" d="M320.973 231.454a1.6 1.6 0 0 1-1.6-1.587v.017a1.6 1.6 0 1 0 3.206 0v-.017a1.6 1.6 0 0 1-1.606 1.587Z" transform="translate(-317.861 -226.182)" fill="#34dce7"/><circle id="Ellipse_25" data-name="Ellipse 25" cx="1.603" cy="1.603" transform="translate(5.321 2.067)" fill="#34dce7" opacity=".3" r="1.603"/><path id="Path_68" data-name="Path 68" d="M324.17 231.454a1.6 1.6 0 0 1-1.6-1.587v.017a1.6 1.6 0 1 0 3.206 0v-.017a1.6 1.6 0 0 1-1.606 1.587Z" transform="translate(-317.245 -226.182)" fill="#34dce7"/><circle id="Ellipse_26" data-name="Ellipse 26" cx="1.603" cy="1.603" transform="translate(9.104 2.067)" fill="#34dce7" opacity=".3" r="1.603"/><path id="Path_69" data-name="Path 69" d="M327.341 231.454a1.6 1.6 0 0 1-1.6-1.587v.017a1.6 1.6 0 1 0 3.2 0v-.017a1.6 1.6 0 0 1-1.6 1.587Z" transform="translate(-316.634 -226.182)" fill="#34dce7"/><path id="Rectangle_99" data-name="Rectangle 99" transform="translate(0 7.579)" fill="#34dce7" opacity=".66" d="M0 0h67.106v.149H0z"/><circle id="Ellipse_27" data-name="Ellipse 27" cx="1.271" cy="1.271" transform="translate(1.841 2.399)" fill="#34dce7" r="1.271"/><circle id="Ellipse_28" data-name="Ellipse 28" cx="1.271" cy="1.271" transform="translate(5.653 2.399)" fill="#dbff0e" r="1.271"/><circle id="Ellipse_29" data-name="Ellipse 29" cx="1.271" cy="1.271" transform="translate(9.436 2.399)" fill="#ff2995" r="1.271"/><rect id="Rectangle_100" data-name="Rectangle 100" width="2.541" height="22.195" rx="1.065" transform="translate(1.841 8.833)" fill="#34dce7" opacity=".3"/><rect id="Rectangle_101" data-name="Rectangle 101" width="1.015" height="9.283" rx=".426" transform="translate(2.515 9.933)" fill="#34dce7"/><g id="Group_62" data-name="Group 62" transform="translate(8.171 11.105)"><g id="Group_49" data-name="Group 49"><path id="Path_70" data-name="Path 70" d="M337.441 236.5h-12.276a.208.208 0 1 1 0-.416h12.276a.208.208 0 1 1 0 .416Z" transform="translate(-324.956 -236.088)" fill="#34fbe7"/></g><g id="Group_50" data-name="Group 50" transform="translate(13.242)"><path id="Path_71" data-name="Path 71" d="M337.918 236.5h-1.651a.208.208 0 1 1 0-.416h1.651a.208.208 0 1 1 0 .416Z" transform="translate(-336.059 -236.088)" fill="#34fbe7"/></g><g id="Group_51" data-name="Group 51" transform="translate(16.714)"><path id="Path_72" data-name="Path 72" d="M354.065 236.5h-14.886a.208.208 0 1 1 0-.416h14.887a.208.208 0 1 1 0 .416Z" transform="translate(-338.97 -236.088)" fill="#34fbe7"/></g><g id="Group_52" data-name="Group 52" transform="translate(0 1.041)"><path id="Path_73" data-name="Path 73" d="M339.565 237.377h-14.4a.208.208 0 1 1 0-.416h14.4a.208.208 0 0 1 0 .416Z" transform="translate(-324.956 -236.961)" fill="#34fbe7"/></g><g id="Group_53" data-name="Group 53" transform="translate(15.613 .852)"><path id="Path_74" data-name="Path 74" d="M350.929 237.218h-12.673a.208.208 0 1 1 0-.416h12.673a.208.208 0 0 1 0 .416Z" transform="translate(-338.047 -236.802)" fill="#34fbe7"/></g><g id="Group_54" data-name="Group 54" transform="translate(29.211 .852)"><path id="Path_75" data-name="Path 75" d="M352.2 237.218h-2.54a.208.208 0 1 1 0-.416h2.54a.208.208 0 1 1 0 .416Z" transform="translate(-349.449 -236.802)" fill="#34fbe7"/></g><g id="Group_55" data-name="Group 55" transform="translate(.531 2.33)"><path id="Path_76" data-name="Path 76" d="M342.247 238.459H325.61a.209.209 0 1 1 0-.417h16.637a.209.209 0 1 1 0 .417Z" transform="translate(-325.401 -238.042)" fill="#34fbe7"/></g><g id="Group_56" data-name="Group 56" transform="translate(26.557 2.33)"><path id="Path_77" data-name="Path 77" d="M351.357 238.459h-3.925a.209.209 0 1 1 0-.417h3.925a.209.209 0 1 1 0 .417Z" transform="translate(-347.223 -238.042)" fill="#34fbe7"/></g><g id="Group_57" data-name="Group 57" transform="translate(12.845 3.488)"><path id="Path_78" data-name="Path 78" d="M354.842 239.431h-18.907a.209.209 0 0 1 0-.417h18.907a.209.209 0 0 1 0 .417Z" transform="translate(-335.726 -239.013)" fill="#34fbe7"/></g><g id="Group_58" data-name="Group 58" transform="translate(0 5.06)"><path id="Path_79" data-name="Path 79" d="M342.827 240.749h-17.662a.209.209 0 0 1 0-.418h17.662a.209.209 0 0 1 0 .418Z" transform="translate(-324.956 -240.331)" fill="#34fbe7"/></g><g id="Group_59" data-name="Group 59" transform="translate(12.845 6.047)"><path id="Path_80" data-name="Path 80" d="M355.108 241.575h-19.173a.209.209 0 0 1 0-.417h19.173a.209.209 0 0 1 0 .417Z" transform="translate(-335.726 -241.158)" fill="#34fbe7"/></g><g id="Group_60" data-name="Group 60" transform="translate(2.491 6.54)"><path id="Path_81" data-name="Path 81" d="M332.53 241.988h-5.276a.208.208 0 1 1 0-.416h5.276a.208.208 0 1 1 0 .416Z" transform="translate(-327.045 -241.572)" fill="#34fbe7"/></g><g id="Group_61" data-name="Group 61" transform="translate(0 3.488)"><path id="Path_82" data-name="Path 82" d="M329.287 239.431h-4.122a.209.209 0 1 1 0-.417h4.122a.209.209 0 0 1 0 .417Z" transform="translate(-324.956 -239.013)" fill="#34fbe7"/></g></g></g><g id="Group_65" data-name="Group 65" transform="translate(239.272 30.447)"><g id="Group_64" data-name="Group 64"><path id="Rectangle_102" data-name="Rectangle 102" d="M0 0h119.654v166.141a7.517 7.517 0 0 1-7.517 7.517H7.517A7.517 7.517 0 0 1 0 166.141V0Z" fill="#34dce7" opacity=".3"/><path id="Rectangle_103" data-name="Rectangle 103" transform="translate(15.909 22.823)" fill="#34dce7" opacity=".3" d="M0 0h94.78v82.93H0z"/><path id="Rectangle_104" data-name="Rectangle 104" transform="translate(15.909 128.251)" fill="#34dce7" opacity=".3" d="M0 0h33.328v10.555H0z"/><path id="Rectangle_105" data-name="Rectangle 105" transform="translate(54.239 128.251)" fill="#34dce7" opacity=".3" d="M0 0h56.451v10.555H0z"/><path id="Rectangle_106" data-name="Rectangle 106" transform="translate(15.909 145.147)" fill="#34dce7" opacity=".3" d="M0 0h94.78v14.729H0z"/><path id="Rectangle_107" data-name="Rectangle 107" fill="#34dce7" opacity=".3" d="M0 0h119.654v17.756H0z"/><path id="Rectangle_108" data-name="Rectangle 108" transform="translate(0 17.414)" fill="#34dce7" opacity=".66" d="M0 0h119.654v.342H0z"/><circle id="Ellipse_33" data-name="Ellipse 33" cx="2.92" cy="2.92" transform="translate(4.23 5.511)" fill="#2a5fd1" r="2.92"/><circle id="Ellipse_34" data-name="Ellipse 34" cx="2.92" cy="2.92" transform="translate(12.99 5.511)" fill="#2a5fd1" r="2.92"/><circle id="Ellipse_35" data-name="Ellipse 35" cx="2.92" cy="2.92" transform="translate(21.681 5.511)" fill="#2a5fd1" r="2.92"/><rect id="Rectangle_109" data-name="Rectangle 109" width="5.839" height="146.343" rx="2.448" transform="translate(4.23 20.294)" fill="#34dce7" opacity=".3"/><rect id="Rectangle_110" data-name="Rectangle 110" width="2.333" height="21.328" rx=".978" transform="translate(5.778 22.823)" fill="#34dce7"/><path id="Line_76" data-name="Line 76" fill="none" stroke="#34fbe7" stroke-linecap="round" stroke-linejoin="round" stroke-width="1" d="M19.592 27.686h39.911"/><path id="Line_77" data-name="Line 77" fill="none" stroke="#34fbe7" stroke-linecap="round" stroke-linejoin="round" stroke-width="1" d="M63.299 27.686h6.49"/><path id="Line_78" data-name="Line 78" fill="none" stroke="#34fbe7" stroke-linecap="round" stroke-linejoin="round" stroke-width="1" d="M76.945 27.686h28.325"/><path id="Line_79" data-name="Line 79" fill="none" stroke="#34fbe7" stroke-linecap="round" stroke-linejoin="round" stroke-width="1" d="M19.592 31.779h48.26"/><path id="Line_80" data-name="Line 80" fill="none" stroke="#34fbe7" stroke-linecap="round" stroke-linejoin="round" stroke-width="1" d="M72.622 31.034H92.24"/><path id="Line_81" data-name="Line 81" fill="none" stroke="#34fbe7" stroke-linecap="round" stroke-linejoin="round" stroke-width="1" d="M95.878 31.034h9.988"/><path id="Line_82" data-name="Line 82" fill="none" stroke="#34fbe7" stroke-linecap="round" stroke-linejoin="round" stroke-width="1" d="M21.681 36.848h57.053"/><path id="Line_83" data-name="Line 83" fill="none" stroke="#34fbe7" stroke-linecap="round" stroke-linejoin="round" stroke-width="1" d="M85.443 36.848h15.43"/><path id="Line_84" data-name="Line 84" fill="none" stroke="#34fbe7" stroke-linecap="round" stroke-linejoin="round" stroke-width="1" d="M105.867 41.401H61.739"/><path id="Line_85" data-name="Line 85" fill="none" stroke="#34fbe7" stroke-linecap="round" stroke-linejoin="round" stroke-width="1" d="M80.672 47.581h-61.08"/><path id="Line_86" data-name="Line 86" fill="none" stroke="#34fbe7" stroke-linecap="round" stroke-linejoin="round" stroke-width="1" d="M61.739 51.458h45.171"/><path id="Line_87" data-name="Line 87" fill="none" stroke="#34fbe7" stroke-linecap="round" stroke-linejoin="round" stroke-width="1" d="M105.163 111.909H68.007"/><path id="Line_88" data-name="Line 88" fill="none" stroke="#34fbe7" stroke-linecap="round" stroke-linejoin="round" stroke-width="1" d="M19.592 41.401h16.207"/><path id="Line_89" data-name="Line 89" fill="none" stroke="#34fbe7" stroke-linecap="round" stroke-linejoin="round" stroke-width="1" d="M45.638 130.684H34.457"/><path id="Line_90" data-name="Line 90" fill="none" stroke="#34fbe7" stroke-linecap="round" stroke-linejoin="round" stroke-width="1" d="M44.595 135.604H18.804"/><path id="Line_91" data-name="Line 91" fill="none" stroke="#34fbe7" stroke-linecap="round" stroke-linejoin="round" stroke-width="1" d="M57.117 130.684h4.621"/><path id="Line_92" data-name="Line 92" fill="none" stroke="#34fbe7" stroke-linecap="round" stroke-linejoin="round" stroke-width="1" d="M65.541 130.684h4.621"/><path id="Line_93" data-name="Line 93" fill="none" stroke="#34fbe7" stroke-linecap="round" stroke-linejoin="round" stroke-width="1" d="M73.964 130.684h4.621"/><path id="Line_94" data-name="Line 94" fill="none" stroke="#34fbe7" stroke-linecap="round" stroke-linejoin="round" stroke-width="1" d="M82.387 130.684h4.621"/><path id="Line_95" data-name="Line 95" fill="none" stroke="#34fbe7" stroke-linecap="round" stroke-linejoin="round" stroke-width="1" d="M90.81 130.684h4.621"/><path id="Line_96" data-name="Line 96" fill="none" stroke="#34fbe7" stroke-linecap="round" stroke-linejoin="round" stroke-width="1" d="M99.233 130.684h4.621"/><path id="Line_97" data-name="Line 97" fill="none" stroke="#34fbe7" stroke-linecap="round" stroke-linejoin="round" stroke-width="1" d="M57.117 134.276h2.982"/><path id="Line_98" data-name="Line 98" fill="none" stroke="#34fbe7" stroke-linecap="round" stroke-linejoin="round" stroke-width="1" d="M64.05 134.276h2.982"/><path id="Line_99" data-name="Line 99" fill="none" stroke="#34fbe7" stroke-linecap="round" stroke-linejoin="round" stroke-width="1" d="M70.982 134.276h2.982"/><path id="Line_100" data-name="Line 100" fill="none" stroke="#34fbe7" stroke-linecap="round" stroke-linejoin="round" stroke-width="1" d="M77.914 134.276h2.982"/><path id="Line_101" data-name="Line 101" fill="none" stroke="#34fbe7" stroke-linecap="round" stroke-linejoin="round" stroke-width="1" d="M84.846 134.276h2.982"/><path id="Line_102" data-name="Line 102" fill="none" stroke="#34fbe7" stroke-linecap="round" stroke-linejoin="round" stroke-width="1" d="M91.779 134.276h2.982"/><path id="Line_103" data-name="Line 103" fill="none" stroke="#34fbe7" stroke-linecap="round" stroke-linejoin="round" stroke-width="1" d="M98.711 134.276h2.982"/><path id="Path_86" data-name="Path 86" d="m22.45 148.909-3.282 3.282 3.154 3.154" fill="none" stroke="#34fbe7" stroke-linecap="round" stroke-linejoin="round" stroke-width="1"/><path id="Path_87" data-name="Path 87" d="m25.732 148.909-3.282 3.282 3.154 3.154" fill="none" stroke="#34fbe7" stroke-linecap="round" stroke-linejoin="round" stroke-width="1"/><path id="Line_104" data-name="Line 104" fill="none" stroke="#34fbe7" stroke-linecap="round" stroke-linejoin="round" stroke-width="1" d="M33.862 148.909h69.992"/><path id="Line_105" data-name="Line 105" fill="none" stroke="#34fbe7" stroke-linecap="round" stroke-linejoin="round" stroke-width="1" d="M33.862 152.127h42.412"/><path id="Line_106" data-name="Line 106" fill="none" stroke="#34fbe7" stroke-linecap="round" stroke-linejoin="round" stroke-width="1" d="M33.862 156.657h42.412"/></g></g><g id="Group_66" data-name="Group 66" transform="translate(351.683 198.649)"><path id="Path_93" data-name="Path 93" d="M396.719 236.923a7.243 7.243 0 1 1 7.243-7.243 7.251 7.251 0 0 1-7.243 7.243Zm0-13.182a5.939 5.939 0 1 0 5.939 5.939 5.945 5.945 0 0 0-5.939-5.939Z" transform="translate(-389.476 -222.437)" fill="#2d61f0"/></g><g id="Group_67" data-name="Group 67" transform="translate(32.305 169.48)"><path id="Path_94" data-name="Path 94" d="M99.438 210.242a7.243 7.243 0 1 1 7.243-7.242 7.251 7.251 0 0 1-7.243 7.242Zm0-13.182a5.939 5.939 0 1 0 5.938 5.94 5.946 5.946 0 0 0-5.938-5.94Z" transform="translate(-92.195 -195.756)" fill="#2d61f0"/></g><g id="Group_70" data-name="Group 70" transform="translate(167.882 42.341)"><g id="Group_68" data-name="Group 68"><path id="Rectangle_111" data-name="Rectangle 111" transform="rotate(-45.002 2.036 .844)" fill="#2d61f0" d="M0 0h2.385v21.374H0z"/></g><g id="Group_69" data-name="Group 69"><path id="Rectangle_112" data-name="Rectangle 112" transform="rotate(-45 18.244 7.557)" fill="#2d61f0" d="M0 0h21.374v2.385H0z"/></g></g><g id="Group_72" data-name="Group 72" transform="translate(26.733 200.579)"><path id="Path_96" data-name="Path 96" d="m104.512 258.923-16.989-16.989 16.989-16.992 16.988 16.992ZM90.9 241.934l13.616 13.616 13.616-13.616-13.616-13.618Z" transform="translate(-87.523 -224.942)" fill="#2d61f0"/></g><g id="Group_2129" data-name="Group 2129" transform="translate(58.091 281.098)"><path id="Path_96-2" data-name="Path 96" d="m104.512 258.923-16.989-16.989 16.989-16.992 16.988 16.992ZM90.9 241.934l13.616 13.616 13.616-13.616-13.616-13.618Z" transform="translate(-87.523 -224.942)" fill="#2d61f0"/></g><g id="Group_76" data-name="Group 76" transform="translate(381.275 149.054)"><g id="Group_74" data-name="Group 74"><path id="Path_98" data-name="Path 98" d="m424.28 197.2-9.991-9.991 9.991-9.991 1.044 1.044-8.948 8.948 8.948 8.948Z" transform="translate(-414.289 -177.222)" fill="#2d61f0"/></g><g id="Group_75" data-name="Group 75" transform="translate(7.69)"><path id="Path_99" data-name="Path 99" d="m430.728 197.2-9.991-9.991 9.991-9.991 1.044 1.044-8.948 8.948 8.948 8.948Z" transform="translate(-420.737 -177.222)" fill="#2d61f0"/></g></g><g id="Group_2126" data-name="Group 2126" transform="translate(97.766 308.521)"><g id="Group_74-2" data-name="Group 74" transform="translate(7.69)"><path id="Path_98-2" data-name="Path 98" d="m415.332 197.2 9.991-9.991-9.991-9.991-1.044 1.044 8.947 8.948-8.947 8.948Z" transform="translate(-414.289 -177.222)" fill="#2d61f0"/></g><g id="Group_75-2" data-name="Group 75"><path id="Path_99-2" data-name="Path 99" d="m421.78 197.2 9.991-9.991-9.991-9.991-1.043 1.044 8.948 8.948-8.948 8.948Z" transform="translate(-420.736 -177.222)" fill="#2d61f0"/></g></g><g id="Group_79" data-name="Group 79" transform="translate(219.544 79.156)"><g id="Group_77" data-name="Group 77"><path id="Path_100" data-name="Path 100" d="m276.163 133.2-9.991-9.991 9.991-9.991 1.044 1.044-8.948 8.948 8.948 8.948Z" transform="translate(-266.171 -113.213)" fill="#2d61f0"/></g><g id="Group_78" data-name="Group 78" transform="translate(7.69)"><path id="Path_101" data-name="Path 101" d="m282.611 133.2-9.991-9.991 9.991-9.991 1.044 1.044-8.948 8.948 8.948 8.948Z" transform="translate(-272.619 -113.213)" fill="#2d61f0"/></g></g><g id="Group_81" data-name="Group 81" transform="translate(372.61 109.245)"><path id="Path_103" data-name="Path 103" d="M419.168 156.955h-6.958a1.826 1.826 0 0 1-1.824-1.824v-4.092h-1.672a1.686 1.686 0 0 1-1.193-2.879l6.974-6.975a1.69 1.69 0 0 1 2.385 0l6.973 6.976a1.686 1.686 0 0 1-1.193 2.879h-1.67v4.092a1.825 1.825 0 0 1-1.822 1.823Zm-3.479-15.07a.49.49 0 0 0-.349.144L408.365 149a.494.494 0 0 0 .35.843h2.865v5.285a.631.631 0 0 0 .631.631h6.958a.631.631 0 0 0 .63-.631v-5.285h2.865a.494.494 0 0 0 .349-.843l-6.973-6.975a.492.492 0 0 0-.351-.14Z" transform="translate(-407.023 -140.692)" fill="#2d61f0"/></g><g id="github-logo" transform="translate(338.625 219.593)"><path id="Path_4574" data-name="Path 4574" d="M33.314 14.257a17.777 17.777 0 0 0-6.5-6.5 17.463 17.463 0 0 0-8.962-2.395 17.465 17.465 0 0 0-8.96 2.398 17.775 17.775 0 0 0-6.5 6.5A17.465 17.465 0 0 0 0 23.219a17.352 17.352 0 0 0 3.406 10.5 17.487 17.487 0 0 0 8.8 6.451 1.041 1.041 0 0 0 .93-.163.909.909 0 0 0 .3-.7l-.012-1.255q-.012-1.185-.012-2.069l-.535.092a6.821 6.821 0 0 1-1.29.081 9.829 9.829 0 0 1-1.616-.163 3.61 3.61 0 0 1-1.558-.7 2.95 2.95 0 0 1-1.023-1.43l-.232-.535a5.809 5.809 0 0 0-.732-1.185 2.805 2.805 0 0 0-1.011-.883l-.163-.117a1.707 1.707 0 0 1-.3-.279 1.276 1.276 0 0 1-.209-.325q-.07-.163.116-.268a1.508 1.508 0 0 1 .674-.1L6 30.24a3.393 3.393 0 0 1 1.151.558 3.752 3.752 0 0 1 1.127 1.209 4.1 4.1 0 0 0 1.29 1.453 2.737 2.737 0 0 0 1.523.5 6.611 6.611 0 0 0 1.325-.116 4.624 4.624 0 0 0 1.046-.349A3.767 3.767 0 0 1 14.6 31.1a15.918 15.918 0 0 1-2.383-.419 9.488 9.488 0 0 1-2.185-.907 6.258 6.258 0 0 1-1.872-1.557 7.485 7.485 0 0 1-1.22-2.441 11.608 11.608 0 0 1-.477-3.487A6.781 6.781 0 0 1 8.3 17.5a6.25 6.25 0 0 1 .163-4.742 3.258 3.258 0 0 1 2 .314 13.978 13.978 0 0 1 1.941.9q.616.371.988.628a16.79 16.79 0 0 1 8.928 0l.883-.558a12.511 12.511 0 0 1 2.138-1.023 3.047 3.047 0 0 1 1.884-.256 6.189 6.189 0 0 1 .186 4.742 6.782 6.782 0 0 1 1.837 4.789 11.738 11.738 0 0 1-.477 3.5 7.194 7.194 0 0 1-1.232 2.441 6.5 6.5 0 0 1-1.883 1.546 9.505 9.505 0 0 1-2.185.907 15.9 15.9 0 0 1-2.383.419 4.141 4.141 0 0 1 1.209 3.3v4.9a.926.926 0 0 0 .291.7 1.01 1.01 0 0 0 .918.162 17.484 17.484 0 0 0 8.8-6.451 17.355 17.355 0 0 0 3.406-10.5 17.479 17.479 0 0 0-2.398-8.961Z" transform="translate(0 -5.365)" fill="#2753cc"/></g><path id="sass-1" d="M36.075 18.336a8.661 8.661 0 0 0-3.81.887 7.837 7.837 0 0 1-.854-1.971 5.451 5.451 0 0 1-.074-1.659 13.294 13.294 0 0 1 .5-1.79c-.008-.074-.09-.435-.936-.443s-1.577.164-1.659.386A9.432 9.432 0 0 0 28.89 15a29.887 29.887 0 0 1-2.57 4.944 5.044 5.044 0 0 1-.583-1.445 5.451 5.451 0 0 1-.074-1.659 13.3 13.3 0 0 1 .5-1.79c-.008-.074-.09-.435-.936-.443s-1.577.164-1.659.386-.172.747-.353 1.256-2.225 5.075-2.759 6.266c-.271.608-.509 1.092-.682 1.421s-.008.025-.025.057l-.23.435v.008c-.115.205-.238.4-.3.4a2.738 2.738 0 0 1 .016-1.306c.3-1.585 1.043-4.057 1.035-4.147 0-.041.14-.476-.476-.7a.748.748 0 0 0-.862.148c-.049 0-.09.131-.09.131s.665-2.784-1.273-2.784c-1.215 0-2.891 1.322-3.72 2.529-.526.287-1.642.9-2.825 1.544-.452.246-.92.509-1.363.747l-.09-.1c-2.349-2.5-6.693-4.278-6.512-7.645.066-1.224.493-4.451 8.343-8.36 6.43-3.2 11.579-2.324 12.474-.37 1.273 2.792-2.751 7.982-9.435 8.729-2.546.287-3.884-.7-4.221-1.068-.353-.386-.4-.4-.534-.328-.214.115-.082.46 0 .665a3.964 3.964 0 0 0 2.414 1.9 12.8 12.8 0 0 0 7.826-.772c4.048-1.568 7.21-5.921 6.282-9.559-.94-3.697-7.082-4.912-12.888-2.851a29.227 29.227 0 0 0-9.9 5.674C.222 9.9-.287 12.514-.073 13.6.674 17.466 6 19.987 8.138 21.851c-.107.057-.205.115-.3.164-1.068.525-5.132 2.652-6.151 4.9-1.15 2.546.181 4.377 1.068 4.623a6.562 6.562 0 0 0 7.07-2.866 7.091 7.091 0 0 0 .632-6.528l-.025-.049.838-.493c.542-.32 1.076-.616 1.544-.871a10.224 10.224 0 0 0-.55 2.792 5.822 5.822 0 0 0 1.256 4.057 1.39 1.39 0 0 0 1.01.328c.9 0 1.314-.747 1.766-1.642.558-1.092 1.051-2.357 1.051-2.357s-.616 3.424 1.068 3.424c.616 0 1.232-.8 1.511-1.207v.008l.049-.082c.033-.057.067-.1.1-.156v-.016c.246-.427.8-1.4 1.618-3.022 1.059-2.086 2.078-4.7 2.078-4.7a14.989 14.989 0 0 0 .4 1.692 16.186 16.186 0 0 0 .879 1.971c-.246.345-.394.542-.394.542l.008.008c-.2.263-.419.542-.649.821a23.865 23.865 0 0 0-1.971 2.472.677.677 0 0 0 .181.9 1.644 1.644 0 0 0 1.035.164 4.609 4.609 0 0 0 1.544-.353 5.346 5.346 0 0 0 1.33-.7 2.962 2.962 0 0 0 1.273-2.619 5.267 5.267 0 0 0-.484-1.848c.074-.107.148-.214.222-.328a34.664 34.664 0 0 0 2.3-3.983 14.99 14.99 0 0 0 .4 1.692 11.86 11.86 0 0 0 .747 1.692 7.3 7.3 0 0 0-2.242 2.9c-.484 1.4-.107 2.028.608 2.176a2.186 2.186 0 0 0 1.125-.23 5.1 5.1 0 0 0 1.421-.731 3.212 3.212 0 0 0 1.568-2.595 4.974 4.974 0 0 0-.353-1.536 8 8 0 0 1 4.073-.468c3.654.427 4.377 2.71 4.237 3.662a2.453 2.453 0 0 1-1.158 1.642c-.255.156-.337.214-.312.328.033.173.148.164.37.131a2.843 2.843 0 0 0 1.987-2.537c.1-2.259-2.045-4.722-5.847-4.7Zm-28.183 9.5c-1.207 1.322-2.907 1.823-3.63 1.4-.78-.452-.476-2.4 1.01-3.8a19.322 19.322 0 0 1 2.85-2.136c.172-.107.435-.263.747-.452a.875.875 0 0 1 .082-.049c.057-.033.123-.074.189-.115a5.238 5.238 0 0 1-1.248 5.153Zm8.828-6c-.419 1.026-1.306 3.662-1.839 3.515-.46-.123-.739-2.119-.09-4.089a9.129 9.129 0 0 1 1.437-2.636c.665-.739 1.388-.985 1.569-.682.212.392-.814 3.25-1.077 3.89Zm7.28 3.48c-.181.09-.345.156-.419.107-.057-.033.074-.156.074-.156s.912-.977 1.273-1.429c.205-.263.452-.567.714-.912v.1A3.033 3.033 0 0 1 24 25.316Zm5.617-1.281c-.131-.1-.115-.4.328-1.355a5.077 5.077 0 0 1 1.248-1.61 2.032 2.032 0 0 1 .123.706 2.311 2.311 0 0 1-1.695 2.259Z" transform="translate(200.244 36.158)" fill="#2753cc"/><g id="jquery" transform="translate(260.654 81.377)" fill="#2753cc"><path id="Path_4582" data-name="Path 4582" d="m219.013 24.669-.546 1.934Zm2.806 4.2h-.6Zm-.155 2.888-3.6.013Zm.755-2.884h-.6Zm-.44 2.639.627-2.393-.627 2.394Zm13.264-11.022-1.169 5.5Zm-3.005 0-.887 4.106.887-4.106Z" transform="translate(-182.565 -17.153)"/><path id="Path_4583" data-name="Path 4583" d="M264.565 18.971h-2.5a.329.329 0 0 0-.306.247l-.887 4.106-.888 4.106a.328.328 0 0 1-.306.246h-1.769c-1.75 0-1.548-1.211-1.19-2.87l.011-.05.039-.209.007-.039.08-.426.086-.456c.026-.138.065-.339.091-.465l.4-1.971.4-1.971a.2.2 0 0 0-.2-.248h-2.566a.326.326 0 0 0-.3.247l-.552 2.618-.552 2.617-.051.243c-.635 2.9-.467 5.668 2.987 5.754h5.521a.327.327 0 0 0 .3-.247l1.169-5.5 1.169-5.5a.2.2 0 0 0-.193-.232Zm9.973 8.734a.2.2 0 0 1 .2.247l-.243 1.186m-.242 1.187.243-1.187-.243 1.188Zm-.3.25c-.736.006-2.946.023-4.608.023 2.02.002 4.605-.023 4.605-.023Zm-6.1-4.4c0-.13.146-.354.285-.354l-.312-.005c-.142 1.417.026.361.026.361Z" transform="translate(-212.085 -15.883)"/><path id="Path_4584" data-name="Path 4584" d="M145.6 30.448Zm4.967-2.892a.2.2 0 0 1 .2.247l-.243 1.186-.04.193m-3.7 1.262Zm-.614 0Zm-.187 0Zm-.19 0Zm.342 0Zm.64 0h-.6Zm3.202-.018Zm.3-.249.2-.994-.2.995Zm-4.36.271Zm-.373 0Zm.189 0Zm-36.568-4.39.388-1.721-.444 1.968-.426 2 .373-1.757c.033-.133.082-.355.113-.491Zm4.648-7.264h-2.745a.332.332 0 0 0-.308.246l-.26 1.149-.26 1.149a.193.193 0 0 0 .2.246h2.767a.329.329 0 0 0 .307-.246l.252-1.149.252-1.148a.2.2 0 0 0-.201-.248Zm-.6 3.822-.805 3.725Zm-7.975 12.342s1.384.018 2.263.018c-.668 0-1.772-.012-2.265-.018Zm4.7-12.343-.389 1.721Z" transform="translate(-88.11 -15.734)"/><path id="Path_4585" data-name="Path 4585" d="M111.993 30.173h-2.767a.332.332 0 0 0-.308.246l-.389 1.721-.388 1.721c-.031.135-.079.358-.108.494l-.373 1.757-.373 1.757q-.055.246-.133.486s-.517 1.538-1.386 1.521h-.109l-.752-.014a.329.329 0 0 0-.31.241l-.287 1.206-.287 1.206a.193.193 0 0 0 .193.248c.493.006 1.6.018 2.265.018 2.171 0 3.315-1.2 4.048-4.663l.858-3.972.805-3.725a.2.2 0 0 0-.199-.248Zm39.307 7.939a.2.2 0 0 1-.2-.247l2.081-9.75m1.011 9.749.842-4.161Z" transform="translate(-87.082 -23.538)"/><path id="Path_4586" data-name="Path 4586" d="M393.245 37.168a1.071 1.071 0 0 1 .022-.37l.988-4.628-1.041 4.875a.2.2 0 0 0 .2.247h.253c-.139 0-.405-.056-.422-.124Zm2.9.068a1.309 1.309 0 0 1-.39.056h.253a.322.322 0 0 0 .3-.248l.05-.247c-.028.136-.14.408-.215.439Zm.586-2.273.371-1.837Zm8.213-7.015.115.474a.192.192 0 0 1-.194.246m-8.5 8.129.371-1.833Zm8.47-9.334.113.485Zm-7.735 5.664.1-.491.4-1.859-.45 2.106Zm-1.769-5.992-.086.407-.988 4.628 1.041-4.875Z" transform="translate(-329.198 -22.718)"/><path id="Path_4587" data-name="Path 4587" d="m405.2 21.736-.115-.474-.113-.485-.057-.246c-.225-.873-.885-1.377-2.317-1.377H396a.326.326 0 0 0-.3.247l-.1.483-.121.57-.034.16-1.045 4.87-.988 4.628a1.079 1.079 0 0 0-.022.37c.017.068.283.124.422.124h2.088a1.309 1.309 0 0 0 .39-.056c.076-.031.187-.3.215-.439l.371-1.833.371-1.833.049-.244.449-2.106.4-1.86a.327.327 0 0 1 .3-.246h6.561a.191.191 0 0 0 .194-.253Z" transform="translate(-329.345 -16.032)"/><path id="Path_4588" data-name="Path 4588" d="M219.343 1.42h-2.6a.537.537 0 0 0-.4.208l-4.643 6.8c-.078.115-.168.1-.2-.037l-.342-1.5a.332.332 0 0 0-.309-.246h-2.985a.18.18 0 0 0-.183.242l1.338 4.686a1.107 1.107 0 0 1 .007.487l-.583 2.268a.187.187 0 0 0 .19.245h2.95a.344.344 0 0 0 .315-.245l.583-2.268a1.506 1.506 0 0 1 .215-.446l7.538-10c.084-.111.038-.2-.1-.2l-.791.005Zm-23.716 5.869a.3.3 0 0 1-.295.261h-3.785a.163.163 0 0 1-.178-.2.041.041 0 0 1 0-.009v-.013l.017-.064a2.372 2.372 0 0 1 2.481-1.592c1.558 0 1.862.761 1.756 1.617Zm-1.11-4.368c-4.858 0-6.009 2.949-6.655 5.925-.646 3.033-.59 5.869 4.436 5.869h1.41c1.328-.005 2.659-.015 3.2-.02a.327.327 0 0 0 .3-.248l.2-.995.04-.194.243-1.186a.2.2 0 0 0-.2-.247h-4.519c-1.8 0-2.331-.478-2.134-1.882h7.228a.3.3 0 0 0 .263-.186.254.254 0 0 0 .017-.063c1.073-4.046.765-6.771-3.83-6.771Zm-22.96 4.353-.068.242-.546 1.933-.545 1.933a.353.353 0 0 1-.321.243h-2.887c-2.19 0-2.723-1.713-2.19-4.239.533-2.584 1.579-4.191 3.734-4.353 2.945-.223 3.534 1.849 2.823 4.24Zm1.98 4.2a32.385 32.385 0 0 0 1.671-5.214c.421-2.556-.858-6.262-5.8-6.262-4.914 0-7.048 3.539-7.862 7.385-.814 3.875.253 7.273 5.139 7.245l3.855-.014 3.6-.013a.348.348 0 0 0 .316-.245l.627-2.394a.187.187 0 0 0-.188-.246h-1.2a.154.154 0 0 1-.171-.179.245.245 0 0 1 .015-.056Z" transform="translate(-135.04)"/><path id="Path_4589" data-name="Path 4589" d="M384.216 56.056a.166.166 0 1 1-.166-.166.166.166 0 0 1 .166.166Z" transform="translate(-321.391 -46.792)"/><path id="Path_4590" data-name="Path 4590" d="M.973 23.6a6.439 6.439 0 0 0-.152 6.56l.076.147c.016.031.031.063.049.093s.02.036.03.054c.018.033.036.064.054.1.032.057.065.113.1.17l.056.093c.037.06.076.12.115.18l.049.076q.081.121.166.24v.006l.028.038c.049.068.1.135.152.2l.057.073q.1.119.194.236t.2.227l.007.008q.2.221.42.428l.065.062q.108.1.22.2l.038.032c.065.056.131.112.2.166l.082.065q.081.065.164.128l.088.067.184.132.067.048.018.013c.059.041.119.079.179.119l.078.052c.092.058.186.116.28.172l.077.044.21.118.116.06c.05.026.1.053.151.078l.035.017.062.03q.144.069.289.133t.278.116l.068.027q.147.057.3.109c.1.034.195.065.293.1l.071.021a2.835 2.835 0 0 0 .3.085c6.562 1.2 8.468-3.943 8.468-3.943-1.6 2.086-4.443 2.636-7.135 2.023-.1-.023-.2-.055-.3-.084q-.183-.054-.364-.117l-.04-.014q-.128-.045-.255-.095l-.071-.028q-.139-.055-.275-.114l-.055-.031q-.151-.068-.3-.14c-.06-.029-.12-.061-.18-.091l-.12-.063q-.109-.058-.215-.121l-.073-.041q-.142-.084-.281-.172l-.076-.05q-.1-.065-.2-.133l-.064-.045-.189-.136-.084-.063q-.124-.1-.246-.194t-.212-.179l-.023-.02q-.113-.1-.223-.2l-.063-.06q-.081-.077-.16-.157l-.063-.063q-.1-.1-.2-.208l-.01-.01-.2-.227-.052-.062q-.073-.088-.143-.177l-.053-.065c-.056-.073-.112-.146-.166-.221a6.917 6.917 0 0 1-.837-7.161" transform="translate(0 -18.635)"/><path id="Path_4591" data-name="Path 4591" d="M28.063 14.6a4.718 4.718 0 0 0-.162 4.8 6.241 6.241 0 0 0 .434.725 3.448 3.448 0 0 0 .505.631c.071.078.145.154.22.229l.058.057c.073.071.148.141.225.209l.009.008c.085.075.173.147.263.217l.06.047c.09.069.181.136.275.2l.008.006c.041.029.084.055.126.083.02.013.039.027.059.039l.2.125.029.017c.059.034.12.068.18.1l.064.033.126.065.019.009c.086.043.174.084.263.122l.058.024c.071.03.143.06.215.087l.092.034c.066.024.132.047.2.069l.09.029a2.191 2.191 0 0 0 .286.083c5.067.839 6.236-3.062 6.236-3.062a4.813 4.813 0 0 1-5.275 1.678q-.188-.05-.373-.111-.147-.048-.291-.1-.109-.042-.216-.087l-.058-.025q-.134-.058-.264-.123l-.133-.068-.077-.039q-.085-.046-.168-.095l-.04-.023q-.1-.06-.2-.124l-.061-.041-.132-.087q-.139-.1-.274-.2l-.062-.049a6.109 6.109 0 0 1-2.069-2.949 4.576 4.576 0 0 1 .357-3.671" transform="translate(-22.877 -11.273)"/><path id="Path_4592" data-name="Path 4592" d="M51.08 9.806a2.953 2.953 0 0 0-.234 2.849 4.012 4.012 0 0 0 2.3 2.152c.042.016.084.029.126.044l.056.017a1.573 1.573 0 0 0 .18.052 3.125 3.125 0 0 0 3.758-1.726 2.743 2.743 0 0 1-3.152.854q-.168-.043-.332-.1a4.012 4.012 0 0 1-1.082-.588 3.365 3.365 0 0 1-1.188-4.151" transform="translate(-42.353 -7.71)"/></g><g id="php-1" transform="translate(302.674 101.951)"><ellipse id="Ellipse_41" data-name="Ellipse 41" cx="18.853" cy="9.814" rx="18.853" ry="9.814" fill="#34fbe7"/><path id="Path_4593" data-name="Path 4593" d="m35.945 29.829 2.066-10.46h4.778c2.066.129 3.1 1.162 3.1 2.97a4.569 4.569 0 0 1-4.649 4.778h-2.325l-.515 2.712Zm3.487-4.649.646-3.874h1.679c.9 0 1.55.387 1.55 1.162-.129 2.2-1.162 2.583-2.324 2.712h-1.55Zm5.977 1.937 2.066-10.46h2.454l-.517 2.712h2.324c2.066.129 2.841 1.162 2.583 2.454l-.9 5.294h-2.587l.9-4.778c.129-.646.129-1.033-.775-1.033h-1.933l-1.162 5.811Zm7.841 2.712 2.066-10.46h4.778c2.066.129 3.1 1.162 3.1 2.97a4.57 4.57 0 0 1-4.649 4.778h-2.326l-.519 2.712Zm3.486-4.649.646-3.874h1.678c.9 0 1.55.387 1.55 1.162-.129 2.2-1.162 2.583-2.324 2.712h-1.55Z" transform="translate(-30.651 -14.204)" fill="#2d61f0" fill-rule="evenodd"/></g><g id="bootstrap-4" transform="translate(171.193 72.013)"><path id="Path_4580" data-name="Path 4580" d="M0 29.879A4.423 4.423 0 0 0 4.423 34.3h25.456a4.423 4.423 0 0 0 4.421-4.421V4.423A4.423 4.423 0 0 0 29.879 0H4.423A4.423 4.423 0 0 0 0 4.423v25.456Z" fill="#2753cc"/><path id="Path_4581" data-name="Path 4581" d="M76.642 58.906v-4.857h4.276a6.651 6.651 0 0 1 1.178.1 2.94 2.94 0 0 1 1 .364 1.939 1.939 0 0 1 .7.727 2.415 2.415 0 0 1 .262 1.193 2.2 2.2 0 0 1-.785 1.891 3.283 3.283 0 0 1-2.007.582ZM72.075 50.5v20.769h10.064a10.619 10.619 0 0 0 2.72-.349 7.274 7.274 0 0 0 2.356-1.076 5.3 5.3 0 0 0 1.643-1.876 6.349 6.349 0 0 0-.334-6.05 4.992 4.992 0 0 0-2.865-1.934 5.176 5.176 0 0 0 2.109-1.716 4.55 4.55 0 0 0 .713-2.618A5.571 5.571 0 0 0 88 53.205a3.991 3.991 0 0 0-1.353-1.585 5.837 5.837 0 0 0-2.094-.858 12.929 12.929 0 0 0-2.705-.262Zm4.567 17.22v-5.7h4.974A3.848 3.848 0 0 1 84 62.7a2.685 2.685 0 0 1 .9 2.283 2.854 2.854 0 0 1-.276 1.338 2.195 2.195 0 0 1-.742.829 3.141 3.141 0 0 1-1.076.436 6.1 6.1 0 0 1-1.28.131Z" transform="translate(-62.418 -43.733)" fill="#3577fd"/></g><g id="Group_2127" data-name="Group 2127" transform="translate(146.489 179.461)"><g id="Ellipse_37" data-name="Ellipse 37" transform="rotate(-90 13.098 13.098)" fill="none" stroke="#34fbe7" stroke-width=".8"><ellipse cx="6.614" cy="18.933" rx="6.614" ry="18.933" stroke="none"/><ellipse cx="6.614" cy="18.933" rx="6.214" ry="18.533"/></g><g id="Ellipse_38" data-name="Ellipse 38" transform="rotate(-30 14.157 -3.469)" fill="none" stroke="#34fbe7" stroke-width=".8"><ellipse cx="6.614" cy="18.933" rx="6.614" ry="18.933" stroke="none"/><ellipse cx="6.614" cy="18.933" rx="6.214" ry="18.533"/></g><g id="Ellipse_39" data-name="Ellipse 39" transform="rotate(-150 12.823 17.682)" fill="none" stroke="#34fbe7" stroke-width=".8"><ellipse cx="6.614" cy="18.933" rx="6.614" ry="18.933" stroke="none"/><ellipse cx="6.614" cy="18.933" rx="6.214" ry="18.533"/></g><circle id="Ellipse_40" data-name="Ellipse 40" cx="3.239" cy="3.239" transform="translate(15.694 16.472)" fill="#34fbe7" r="3.239"/></g><g id="Group_2333" data-name="Group 2333" transform="translate(12.402 246.685)"><g id="noun_photoshop_622609"><g id="Group_2288" data-name="Group 2288"><g id="Group_2287" data-name="Group 2287"><g id="Group_2285" data-name="Group 2285"><path id="Path_4694" data-name="Path 4694" d="M49.829 54.026h-33.1a3.967 3.967 0 0 1-3.963-3.963v-33.1A3.967 3.967 0 0 1 16.729 13h33.1a3.967 3.967 0 0 1 3.963 3.963v33.1a3.967 3.967 0 0 1-3.963 3.963Zm-33.1-38.695a1.634 1.634 0 0 0-1.629 1.632v33.1a1.634 1.634 0 0 0 1.632 1.632h33.1a1.634 1.634 0 0 0 1.632-1.632v-33.1a1.634 1.634 0 0 0-1.632-1.632Z" transform="translate(-12.766 -13)" fill="#2753cc"/></g></g></g></g><g id="Group_2297" data-name="Group 2297" transform="translate(12.029 19.004)" fill="#2753cc"><path id="Path_4700" data-name="Path 4700" d="m67.311 130.519 2.64-1.6c.509.9.973 1.667 2.084 1.667 1.065 0 1.737-.417 1.737-2.037v-11.02h3.242V128.6c0 3.358-1.968 4.886-4.84 4.886a5.032 5.032 0 0 1-4.863-2.964" transform="translate(-67.311 -117.343)"/><path id="Path_4701" data-name="Path 4701" d="m152.381 128.982 2.64-1.528a3.528 3.528 0 0 0 3.2 1.968c1.343 0 2.2-.672 2.2-1.6 0-1.111-.88-1.505-2.362-2.153l-.81-.348c-2.339-1-3.89-2.246-3.89-4.886 0-2.431 1.852-4.284 4.747-4.284a4.788 4.788 0 0 1 4.608 2.594l-2.524 1.621a2.207 2.207 0 0 0-2.084-1.389 1.41 1.41 0 0 0-1.552 1.389c0 .973.6 1.366 1.991 1.968l.81.347c2.756 1.181 4.307 2.385 4.307 5.094 0 2.918-2.292 4.515-5.372 4.515a6.227 6.227 0 0 1-5.9-3.311" transform="translate(-140.918 -116.153)"/></g></g></g></g></svg>